#!OML:ASF H:\Not Pregnant\Project 1\Capture day 1\Session 1\non-pregnant.ASF
:FULLY-SPECIFIED
:DEGREES
821
root -5.57518 16.3294 34.7417 122.636 -83.8405 -106.694
lowerback -9.16162 2.34248 3.54715
upperback -8.86355 2.50633 0.481137
thorax -3.98106 0.905034 -1.32951
lowerneck 6.48095 -6.71111 -31.8023
upperneck 5.02359 -13.3276 31.4717
head 4.8757 -7.45088 16.0186
rclavicle 2.29596e-014 9.14409e-015
rhumerus -44.7085 17.2003 -104.037
rradius 33.7935
rwrist 20.3085
rhand -7.09237 10.1327
rfingers 7.12502
rthumb 18.782 -18.9805
lclavicle 2.29596e-014 9.14409e-015
lhumerus -47.4815 -14.5523 100.805
lradius 36.7556
lwrist 37.0552
lhand -9.20639 -27.0623
lfingers 7.12502
lthumb 16.7478 2.23536
rfemur -10.6799 -20.6688 28.4631
rtibia 1.59028e-015
rfoot -9.65755 25.014
rtoes -9.28283
lfemur -23.2309 6.63883 -14.2401
ltibia 19.5218
lfoot -14.2984 -10.1199
ltoes -15.4618
822
root -5.56385 16.3276 34.7417 122.936 -83.8014 -107.123
lowerback -9.14671 2.34485 3.56239
upperback -8.7415 2.51554 0.493787
thorax -3.85853 0.916633 -1.32312
lowerneck 6.72577 -6.77471 -31.8666
upperneck 4.80383 -13.4906 31.6775
head 4.85239 -7.55616 16.114
rclavicle 2.98674e-014 -9.14409e-015
rhumerus -44.9922 19.3319 -105.496
rradius 34.3396
rwrist 20.6991
rhand -5.63064 10.5706
rfingers 7.12502
rthumb 20.1874 -18.4004
lclavicle 2.98674e-014 -9.14409e-015
lhumerus -47.5738 -15.8459 102.223
lradius 36.6382
lwrist 33.0533
lhand -7.81826 -25.6011
lfingers 7.12502
lthumb 18.0837 3.57827
rfemur -10.5595 -20.6238 28.4406
rtibia 1.90833e-014
rfoot -9.71142 24.9846
rtoes -9.46071
lfemur -23.1224 6.62494 -14.1988
ltibia 19.545
lfoot -14.3126 -10.0408
ltoes -15.5405
823
root -5.55339 16.3255 34.7378 123.328 -83.7606 -107.681
lowerback -9.10659 2.34005 3.51094
upperback -8.6105 2.52127 0.520499
thorax -3.74362 0.930694 -1.26592
lowerneck 6.97161 -6.8327 -31.9315
upperneck 4.5866 -13.6453 31.8776
head 4.82685 -7.65771 16.2085
rclavicle 9.83984e-015 -1.86858e-014
rhumerus -45.3051 21.4283 -106.869
rradius 34.9127
rwrist 21.1641
rhand -4.35364 11.0227
rfingers 7.12502
rthumb 21.4143 -17.8139
lclavicle 9.83984e-015 -1.86858e-014
lhumerus -47.711 -17.2354 103.567
lradius 36.6529
lwrist 28.4776
lhand -6.28117 -24.2431
lfingers 7.12502
lthumb 19.562 4.79278
rfemur -10.3817 -20.569 28.4079
rtibia 1.90833e-014
rfoot -9.79726 24.9466
rtoes -9.67424
lfemur -22.9663 6.67539 -14.1541
ltibia 19.5712
lfoot -14.3431 -10.0224
ltoes -15.5596
824
root -5.54529 16.3224 34.7274 123.885 -83.7114 -108.472
lowerback -9.03434 2.32976 3.36379
upperback -8.4577 2.52851 0.5639
thorax -3.62751 0.951739 -1.13879
lowerneck 7.21728 -6.88666 -31.988
upperneck 4.37282 -13.7933 32.0717
head 4.79933 -7.75614 16.2999
rclavicle 2.24627e-014 -8.74653e-015
rhumerus -45.6314 23.4455 -108.154
rradius 35.4931
rwrist 21.6945
rhand -3.37335 11.4097
rfingers 7.12502
rthumb 22.3556 -17.3169
lclavicle 2.24627e-014 -8.74653e-015
lhumerus -47.8994 -18.7525 104.842
lradius 36.8478
lwrist 23.946
lhand -4.53881 -23.208
lfingers 7.12502
lthumb 21.2365 5.64863
rfemur -10.0976 -20.4953 28.3563
rtibia -1.90833e-014
rfoot -9.93928 24.8937
rtoes -9.94654
lfemur -22.7197 6.8411 -14.1011
ltibia 19.599
lfoot -14.4034 -10.1083
ltoes -15.489
825
root -5.53925 16.3184 34.7161 124.527 -83.6656 -109.4
lowerback -8.94025 2.32447 3.1995
upperback -8.28618 2.54535 0.602443
thorax -3.50398 0.978876 -1.00706
lowerneck 7.46074 -6.93989 -32.0377
upperneck 4.16372 -13.9389 32.2579
head 4.77196 -7.85326 16.3869
rclavicle 1.0635e-014 1.19271e-015
rhumerus -45.9864 25.4015 -109.375
rradius 36.0978
rwrist 22.2374
rhand -2.78747 11.5819
rfingers 7.12502
rthumb 22.9179 -17.0761
lclavicle 1.0635e-014 1.19271e-015
lhumerus -48.1329 -20.3965 106.047
lradius 37.1965
lwrist 19.9135
lhand -2.59907 -22.7459
lfingers 7.12502
lthumb 23.0987 5.8895
rfemur -9.74338 -20.4191 28.2675
rtibia -2.54444e-014
rfoot -10.0947 24.8373
rtoes -10.2238
lfemur -22.3985 6.94183 -14.0367
ltibia 19.6254
lfoot -14.4701 -10.1167
ltoes -15.4471
826
root -5.53397 16.3144 34.6991 125.187 -83.6252 -110.345
lowerback -8.86392 2.30793 2.94451
upperback -8.11137 2.55152 0.656563
thorax -3.37231 1.00495 -0.808689
lowerneck 7.69049 -6.99498 -32.0807
upperneck 3.96477 -14.0826 32.4316
head 4.74814 -7.9483 16.4666
rclavicle -2.10712e-014 1.98785e-015
rhumerus -46.3518 27.2705 -110.52
rradius 36.6969
rwrist 22.7858
rhand -2.6104 11.5026
rfingers 7.12502
rthumb 23.0878 -17.1342
lclavicle -2.10712e-014 1.98785e-015
lhumerus -48.4188 -22.1647 107.206
lradius 37.6909
lwrist 16.7453
lhand -0.664538 -22.838
lfingers 7.12502
lthumb 24.9537 5.55264
rfemur -9.97079 -20.318 28.2813
rtibia 1.08091
rfoot -10.836 24.6572
rtoes -10.527
lfemur -22.0793 7.20183 -13.9851
ltibia 19.648
lfoot -14.5534 -10.2958
ltoes -15.3223
827
root -5.5293 16.3103 34.6776 125.824 -83.5909 -111.262
lowerback -8.78837 2.28508 2.63301
upperback -7.94686 2.55189 0.711621
thorax -3.25417 1.0294 -0.57836
lowerneck 7.9112 -7.04761 -32.1069
upperneck 3.78665 -14.2213 32.5904
head 4.72749 -8.04007 16.5367
rclavicle 1.65985e-014 1.31198e-014
rhumerus -46.7177 28.9827 -111.576
rradius 37.2736
rwrist 23.3623
rhand -2.76485 11.1437
rfingers 7.12502
rthumb 22.9396 -17.5116
lclavicle 1.65985e-014 1.31198e-014
lhumerus -48.7844 -24.0273 108.328
lradius 38.3018
lwrist 14.4587
lhand 0.99759 -23.2956
lfingers 7.12502
lthumb 26.5455 4.86432
rfemur -10.1694 -20.2172 28.3169
rtibia 2.12027
rfoot -11.5834 24.4602
rtoes -10.866
lfemur -21.7647 7.59068 -13.9415
ltibia 19.6626
lfoot -14.6452 -10.618
ltoes -15.1366
828
root -5.52366 16.3068 34.6543 126.354 -83.5671 -112.026
lowerback -8.72369 2.25411 2.30439
upperback -7.81162 2.54029 0.764994
thorax -3.1625 1.04632 -0.341028
lowerneck 8.11188 -7.09881 -32.1292
upperneck 3.63995 -14.3558 32.7316
head 4.71598 -8.12829 16.598
rclavicle 2.10215e-014 1.51076e-014
rhumerus -47.088 30.5438 -112.535
rradius 37.8337
rwrist 23.9447
rhand -3.12902 10.5324
rfingers 7.12502
rthumb 22.5901 -18.1659
lclavicle 2.10215e-014 1.51076e-014
lhumerus -49.22 -25.9115 109.402
lradius 38.9717
lwrist 12.9484
lhand 2.17322 -23.9598
lfingers 7.12502
lthumb 27.6702 4.02491
rfemur -10.227 -20.133 28.3621
rtibia 2.80167
rfoot -12.1419 24.2959
rtoes -11.192
lfemur -21.5126 8.07632 -13.9123
ltibia 19.6688
lfoot -14.7288 -11.0625
ltoes -14.8903
829
root -5.51638 16.3043 34.6309 126.771 -83.5484 -112.616
lowerback -8.68872 2.2176 1.97537
upperback -7.70191 2.51855 0.822253
thorax -3.08221 1.05637 -0.0993906
lowerneck 8.29156 -7.14667 -32.1531
upperneck 3.51592 -14.4805 32.8523
head 4.70939 -8.20957 16.6507
rclavicle -9.93923e-017 3.97569e-015
rhumerus -47.4275 31.9369 -113.355
rradius 38.3654
rwrist 24.5152
rhand -3.59282 9.78409
rfingers 7.12502
rthumb 22.1449 -18.9676
lclavicle -9.93923e-017 3.97569e-015
lhumerus -49.6931 -27.7579 110.418
lradius 39.641
lwrist 11.9821
lhand 2.75712 -24.672
lfingers 7.12502
lthumb 28.2284 3.2218
rfemur -10.2753 -20.0595 28.4378
rtibia 3.32015
rfoot -12.5979 24.1503
rtoes -11.4923
lfemur -21.3413 8.60645 -13.89
ltibia 19.6685
lfoot -14.7914 -11.5738
ltoes -14.5954
830
root -5.50749 16.3024 34.6099 127.09 -83.5207 -113.059
lowerback -8.67 2.1863 1.70088
upperback -7.61489 2.4986 0.87308
thorax -3.01454 1.06323 0.10558
lowerneck 8.45349 -7.19258 -32.1766
upperneck 3.41256 -14.599 32.9588
head 4.70828 -8.28618 16.6968
rclavicle 3.8266e-015 -1.19271e-015
rhumerus -47.6947 33.1063 -113.996
rradius 38.8477
rwrist 25.1239
rhand -4.02025 9.05166
rfingers 7.12502
rthumb 21.7345 -19.7482
lclavicle 3.8266e-015 -1.19271e-015
lhumerus -50.1899 -29.5287 111.362
lradius 40.2681
lwrist 11.2805
lhand 2.73089 -25.3229
lfingers 7.12502
lthumb 28.2034 2.57504
rfemur -10.3277 -19.9889 28.5391
rtibia 3.71395
rfoot -12.9556 24.0298
rtoes -11.7407
lfemur -21.2345 9.09475 -13.8578
ltibia 19.6657
lfoot -14.8308 -12.0444
ltoes -14.3134
831
root -5.4973 16.3013 34.5935 127.412 -83.4901 -113.462
lowerback -8.64769 2.16891 1.57514
upperback -7.55517 2.48669 0.857855
thorax -2.9684 1.06479 0.159374
lowerneck 8.59112 -7.23089 -32.1686
upperneck 3.34355 -14.707 33.0773
head 4.71597 -8.35699 16.7445
rclavicle -2.93704e-014 -1.35174e-014
rhumerus -47.8702 34.0377 -114.526
rradius 39.2814
rwrist 25.7242
rhand -4.36733 8.41942
rfingers 7.12502
rthumb 21.4012 -20.4186
lclavicle -2.93704e-014 -1.35174e-014
lhumerus -50.7183 -31.2176 112.159
lradius 40.8301
lwrist 10.6648
lhand 2.18678 -25.9182
lfingers 7.12502
lthumb 27.6832 2.06439
rfemur -10.3863 -19.9193 28.6347
rtibia 3.99422
rfoot -13.2057 23.9415
rtoes -11.9182
lfemur -21.1782 9.46287 -13.8257
ltibia 19.6633
lfoot -14.8482 -12.3814
ltoes -14.1064
832
root -5.48687 16.3004 34.5797 127.749 -83.451 -113.867
lowerback -8.62912 2.15205 1.47352
upperback -7.50102 2.4736 0.856498
thorax -2.92574 1.06464 0.214036
lowerneck 8.70837 -7.26506 -32.179
upperneck 3.2901 -14.8033 33.1735
head 4.72679 -8.41961 16.7857
rclavicle -2.55438e-014 -2.14687e-014
rhumerus -47.9589 34.7955 -114.863
rradius 39.6606
rwrist 26.2457
rhand -4.62609 7.96913
rfingers 7.12502
rthumb 21.1526 -20.8969
lclavicle -2.55438e-014 -2.14687e-014
lhumerus -51.2282 -32.7478 112.886
lradius 41.3437
lwrist 10.0918
lhand 1.22656 -26.3483
lfingers 7.12502
lthumb 26.7647 1.77828
rfemur -10.4113 -19.847 28.7202
rtibia 4.17268
rfoot -13.3771 23.879
rtoes -12.0433
lfemur -21.1354 9.76324 -13.7871
ltibia 19.6632
lfoot -14.8587 -12.6367
ltoes -13.9563
833
root -5.47646 16.2996 34.574 128.116 -83.4124 -114.304
lowerback -8.59326 2.15632 1.50108
upperback -7.45151 2.48114 0.821348
thorax -2.89045 1.06836 0.162373
lowerneck 8.82307 -7.29746 -32.18
upperneck 3.24206 -14.8951 33.2605
head 4.73621 -8.47942 16.8212
rclavicle -9.34288e-015 -2.8625e-014
rhumerus -47.9478 35.3513 -115.042
rradius 39.9964
rwrist 26.623
rhand -4.82713 7.7142
rfingers 7.12502
rthumb 20.9595 -21.1734
lclavicle -9.34288e-015 -2.8625e-014
lhumerus -51.7298 -34.1379 113.526
lradius 41.8243
lwrist 9.60968
lhand 0.00218488 -26.622
lfingers 7.12502
lthumb 25.5925 1.67841
rfemur -10.4194 -19.7819 28.7524
rtibia 4.28564
rfoot -13.4589 23.8489
rtoes -12.0946
lfemur -21.0787 9.79866 -13.7435
ltibia 19.6641
lfoot -14.8527 -12.5995
ltoes -13.9745
